<?xml version="1.0" encoding="iso-8859-1"?>
<!-- Generator: Adobe Illustrator 19.0.0, SVG Export Plug-In . SVG Version: 6.00 Build 0)  -->
<svg version="1.1" id="Capa_1" xmlns="http://www.w3.org/2000/svg" xmlns:xlink="http://www.w3.org/1999/xlink" x="0px" y="0px"
	 viewBox="0 0 170.942 170.942" style="enable-background:new 0 0 170.942 170.942;" xml:space="preserve">
<g>
	<g>
		<path style="fill:#FFFFFF;" d="M108.972,39.193c0,0,39.845-25.041,54.104-22.153c14.261,2.888-16.302,70.968-16.302,70.968
			L108.972,39.193z"/>
		<path style="fill:#ED7994;" d="M124.406,47.578c0,0,25.547-26.08,35.692-24.025c10.144,2.055-15.99,53.92-15.99,53.92
			L124.406,47.578z"/>
		<path style="fill:#FFFFFF;" d="M61.076,39.197l-37.8,48.809c0,0-3.55-7.92-7.67-18.46c-7.96-20.39-18.03-50.61-8.63-52.51
			c10.76-2.181,36.06,11.529,47.85,18.41C58.666,37.687,61.076,39.197,61.076,39.197z"/>
		<path style="fill:#ED7994;" d="M45.641,47.578c0,0-25.546-26.08-35.691-24.025c-10.144,2.055,15.989,53.92,15.989,53.92
			L45.641,47.578z"/>
		<path style="fill:#E1E1E1;" d="M170.696,82.347c-2.18,25-26.57,52.79-54.33,65.09c-9.4,4.16-19.76,6.62-30.65,6.69h-0.09v0.01
			h-0.31v-0.01c-10.92-0.061-21.31-2.521-30.74-6.69c-27.76-12.3-52.15-40.09-54.33-65.09c-0.36-4.229-0.3-6.1,0.02-7.71
			c0,0,5.6-0.03,15.34-5.09c1.6-0.83,3.32-1.8,5.14-2.94c6.68-4.13,14.78-10.409,23.99-19.93c1.7-1.76,3.45-3.64,5.23-5.64
			c1.31-1.48,2.89-3.46,4.86-5.59c5.69-6.16,14.72-13.58,30.49-13.711v-0.01h0.31v0.01h0.09c15.43,0.16,24.38,7.29,30.08,13.37
			c2.12,2.261,3.79,4.38,5.18,5.931c1.63,1.819,3.22,3.55,4.79,5.18c9.06,9.45,17.07,15.75,23.73,19.96c1.8,1.14,3.5,2.12,5.1,2.98
			c10.19,5.449,16.08,5.479,16.08,5.479C170.996,76.247,171.056,78.117,170.696,82.347z"/>
		<g>
			<circle style="fill:#D1F2FF;" cx="118.723" cy="88.382" r="12.125"/>
			<path style="fill:#050403;" d="M125.559,89.685c-1.254,6.578-8.739,10.673-9.106,10.607c-0.351-0.062-5.818-6.636-4.564-13.214
				c1.255-6.578,9.106-10.607,9.106-10.607C121.298,77.123,126.814,83.108,125.559,89.685z"/>
			<circle style="fill:#FFFFFF;" cx="122.995" cy="86.036" r="2.521"/>
			<circle style="fill:#FFFFFF;" cx="113.882" cy="89.452" r="1.958"/>
			<path style="fill:#050403;" d="M101.107,90.955c4.602-6.03,16.759-15.479,29.744-4.919l7.068-3.439c0,0-8.925-10.253-24.375-5.75
				c-15.45,4.503-20.888,25.131-20.65,28.398l2.608,3.102C95.502,108.347,93.51,100.909,101.107,90.955z"/>
		</g>
		<g>
			<circle style="fill:#D1F2FF;" cx="52.765" cy="88.382" r="12.125"/>
			<path style="fill:#050403;" d="M45.93,89.685c1.254,6.578,8.739,10.673,9.106,10.607c0.351-0.062,5.818-6.636,4.564-13.214
				c-1.255-6.578-9.106-10.607-9.106-10.607C50.191,77.123,44.675,83.108,45.93,89.685z"/>
			<circle style="fill:#FFFFFF;" cx="48.494" cy="86.036" r="2.521"/>
			<circle style="fill:#FFFFFF;" cx="57.607" cy="89.452" r="1.958"/>
			<path style="fill:#050403;" d="M70.382,90.955c-4.602-6.03-16.759-15.479-29.744-4.919l-7.068-3.439
				c0,0,8.925-10.253,24.375-5.75c15.45,4.503,20.888,25.131,20.65,28.398l-2.608,3.102
				C75.986,108.347,77.979,100.909,70.382,90.955z"/>
		</g>
		<g>
			<path style="fill:#FFFFFF;" d="M107.287,117.559c0,6.173-4.152,10.16-10.325,10.16c-6.172,0-12.026-7.777-12.026-13.951
				c0-6.171,5.003-7.385,11.176-7.385C102.284,106.383,107.287,111.387,107.287,117.559z"/>
			<path style="fill:#FFFFFF;" d="M64.213,117.559c0,6.173,4.152,10.16,10.325,10.16c6.173,0,12.025-7.777,12.025-13.951
				c0-6.171-5.003-7.385-11.175-7.385C69.216,106.383,64.213,111.387,64.213,117.559z"/>
		</g>
		<path style="fill:#ED7994;" d="M90.578,103.462H80.85c-2.627,0-4.811,2.877-2.553,4.051c1.296,0.674,3.984,0.523,4.418,2.348
			c0.818,3.438,2.332,4.17,2.978,4.2v0.003c0.007,0,0.043-0.003,0.043-0.003c0.646-0.03,2.157-0.762,2.977-4.2
			c0.435-1.824,3.123-1.674,4.419-2.348C95.388,106.339,93.205,103.462,90.578,103.462z"/>
	</g>
	<path style="opacity:0.6;fill:#FFFFFF;" d="M85.716,21.736v132.391h-0.09v0.01h-0.31v-0.01c-10.92-0.061-21.31-2.521-30.74-6.69
		c-27.76-12.3-52.15-40.09-54.33-65.09c-0.36-4.229-0.3-6.1,0.02-7.71c0,0,5.6-0.03,15.34-5.09c-7.96-20.39-18.03-50.61-8.63-52.51
		c10.76-2.181,36.06,11.529,47.85,18.41c5.69-6.16,14.72-13.58,30.49-13.711v-0.01h0.31v0.01H85.716z"/>
</g>
<g>
</g>
<g>
</g>
<g>
</g>
<g>
</g>
<g>
</g>
<g>
</g>
<g>
</g>
<g>
</g>
<g>
</g>
<g>
</g>
<g>
</g>
<g>
</g>
<g>
</g>
<g>
</g>
<g>
</g>
</svg>
